<svg id="svg149" width="317.64pt" height="190.76pt" version="1.1" viewBox="0 0 317.64 190.76" xmlns="http://www.w3.org/2000/svg">
	<defs id="defs5">
		<clipPath id="clip-0">
			<path id="path2" d="m176.95 322.89h78.047v89.496h-78.047z"/>
		</clipPath>
	</defs>
	<g id="g8">
		<path id="startFill" d="m247.84 48.793-21.523 7.0859 4.9844-6.6445zm-21.613-15.578 0.0898 22.656-4.7812-6.793zm-21.492 15.738 21.574 6.918-7.9375 2.4453zm21.445 15.227-13.121 10.078 13.246-18.383zm13.52 9.9805-13.391-18.277 7.8594 2.6875z" style="fill:#121212"/>
		<path id="path9" d="m249.52 48.336h-17.727l-5.4766-16.859-5.4805 16.859h-17.727l14.344 10.418-5.4805 16.859 14.344-10.422 14.34 10.422-5.4805-16.859zm-1.6758 0.45703-21.523 7.0859 4.9844-6.6445zm-21.613-15.578 0.0898 22.66-4.7812-6.7969zm-21.492 15.738 21.574 6.918-7.9375 2.4453zm21.441 15.227-13.117 10.078 13.246-18.383zm13.523 9.9805-13.391-18.281 7.8594 2.6875z" fill="#f46f1a"/>
		<path id="path11" d="m212.71-5e-6 -18.516 44.832h23.855l8.2734-24.941 8.2656 24.941h23.938l-18.52-44.832zm27.078 60.434 9.625 29.043h27.523l-18.055-43.641zm-64.02 29.043h27.445l9.6406-29.043-19.074-14.598z" fill="#1c60b6"/>
	</g>
	<g id="g15" transform="translate(-135.38 -322.89)" clip-path="url(#clip-0)">
		<path id="path13" d="m254.09 377.47c0 24.074-15.629 34.914-38.566 34.914-22.941 0-38.57-10.84-38.57-34.914v-54.578h23.84v50.668c0 11.598 2.7539 14.965 14.73 14.965 11.973 0 14.727-3.3672 14.727-14.965l-4e-3 -50.668h23.844z" fill="#1c60b6"/>
	</g>
	<path id="path17" d="m146.33 23.809h-22.051v-23.797h67.938v23.797h-22.047v65.672h-23.84z" fill="#1c60b6"/>
	<g id="g78" fill="#231f20" style="fill:#e2e2e2">
		<path id="path19" d="m18.461 110.25c-1.4492-0.85546-3.0664-1.2852-4.75-1.2852-5.3125 0-8.8477 3.8281-8.8477 9.0117 0 5.4102 3.8945 9.0078 8.6836 9.0078 1.6484 0 3.8594-0.42969 5.0156-1.1211l0.19922 3.1992c-1.75 0.72656-3.8984 0.82812-5.25 0.82812-7.293 0-12.145-4.6875-12.145-12.016 0-7.0938 5.1484-11.816 12.18-11.816 1.7812 0 3.5312 0.26562 5.1797 0.99219z" style="fill:#e2e2e2"/>
		<path id="path21" d="m28.23 127.38c3.6289 0 5.2461-3.3008 5.2461-6.3047 0-3.2031-1.9453-6.3047-5.2461-6.3047-3.332 0-5.2812 3.1016-5.2812 6.3047 0 3.0039 1.6172 6.3047 5.2812 6.3047m0-15.117c5.1133 0 8.5469 3.6953 8.5469 8.8125 0 4.8164-3.4961 8.8125-8.5469 8.8125-5.082 0-8.582-3.9961-8.582-8.8125 0-5.1172 3.4336-8.8125 8.582-8.8125" style="fill:#e2e2e2"/>
		<path id="path23" d="m39.68 104.74h3.1016v24.754h-3.1016z" style="fill:#e2e2e2"/>
		<path id="path25" d="m47.203 104.74h3.1016v24.754h-3.1016z" style="fill:#e2e2e2"/>
		<path id="path27" d="m65.223 119.46c0-2.5742-1.5195-4.6875-4.1914-4.6875-3.0352 0-4.2891 2.5078-4.5234 4.6875zm2.0156 9.3398c-1.1914 0.42968-2.543 1.0898-5.3164 1.0898-5.9727 0-8.7148-3.6328-8.7148-9.1133 0-4.9805 3.1367-8.5117 7.8906-8.5117 5.6094 0 7.4258 4.0898 7.4258 9.5039h-12.016c0 3.3359 2.6094 5.6133 5.5469 5.6133 2.0469 0 4.4219-1.0586 5.1836-1.6836z" style="fill:#e2e2e2"/>
		<path id="path29" d="m82.812 121.27c0-3.4961-1.6172-6.5-4.918-6.5-3.1367 0-4.6875 3.3984-4.6875 6.2695 0 3.168 1.7812 5.9414 4.6875 5.9414 2.9024 0 4.918-2.5742 4.918-5.7109m3.1016 7.4922c0 5.1172-2.6406 8.0547-8.6797 8.0547-1.7812 0-3.332-0.23047-6.0391-1.1562l0.32813-2.8711c2.3789 1.0898 3.7969 1.5195 6.0742 1.5195 3.2656 0 5.2148-2.2109 5.2148-5.7773v-1.6484h-0.0664c-1.3203 1.75-3.5 2.6055-5.6445 2.6055-4.8164 0-7.1953-3.9258-7.1953-8.2812 0-4.3242 2.4414-8.9453 7.5274-8.9453 2.9688 0 4.6172 1.0898 5.543 2.9023h0.0664v-2.5078h2.8711z" style="fill:#e2e2e2"/>
		<path id="path31" d="m100.43 119.46c0-2.5742-1.5195-4.6875-4.1914-4.6875-3.0352 0-4.293 2.5078-4.5234 4.6875zm2.0117 9.3398c-1.1875 0.42968-2.5391 1.0898-5.3125 1.0898-5.9726 0-8.7148-3.6328-8.7148-9.1133 0-4.9805 3.1367-8.5117 7.8906-8.5117 5.6094 0 7.4258 4.0898 7.4258 9.5039h-12.016c0 3.3359 2.6094 5.6133 5.5469 5.6133 2.0469 0 4.4219-1.0586 5.1797-1.6836z" style="fill:#e2e2e2"/>
		<path id="path33" d="m121.22 127.38c3.6289 0 5.25-3.3008 5.25-6.3047 0-3.2031-1.9492-6.3047-5.25-6.3047-3.332 0-5.2812 3.1016-5.2812 6.3047 0 3.0039 1.6172 6.3047 5.2812 6.3047m0-15.117c5.1172 0 8.5469 3.6953 8.5469 8.8125 0 4.8164-3.4961 8.8125-8.5469 8.8125-5.082 0-8.582-3.9961-8.582-8.8125 0-5.1172 3.4336-8.8125 8.582-8.8125" style="fill:#e2e2e2"/>
		<path id="path35" d="m134.29 115.17h-3.9609v-2.5078h3.9609v-1.5508c0-4.0938 1.0586-6.7656 5.6445-6.7656 0.79296 0 1.4531 0.0977 2.0781 0.19922l-0.12891 2.5078c-0.36328-0.13282-0.95703-0.19922-1.4883-0.19922-2.6719 0-3 1.7148-3 3.9961v1.8125h4.4531v2.5078h-4.4531v14.324h-3.1055z" style="fill:#e2e2e2"/>
		<path id="path37" d="m151.45 106.46h12.902v2.9023h-9.6016v6.7344h8.7461v2.9024h-8.7461v7.5938h9.6016v2.9023h-12.902z" style="fill:#e2e2e2"/>
		<path id="path39" d="m167.69 112.66h3v2.6758h0.0664c0.92578-1.9141 3.168-3.0703 5.5117-3.0703 4.3594 0 6.3047 2.707 6.3047 7.2266v10h-3.1016v-8.7109c0-3.9297-0.85937-5.8438-3.5664-6.0078-3.5312 0-5.1133 2.8398-5.1133 6.9297v7.7891h-3.1016z" style="fill:#e2e2e2"/>
		<path id="path41" d="m197.98 121.27c0-3.4961-1.6172-6.5-4.918-6.5-3.1367 0-4.6875 3.3984-4.6875 6.2695 0 3.168 1.7852 5.9414 4.6875 5.9414 2.9062 0 4.918-2.5742 4.918-5.7109m3.1016 7.4922c0 5.1172-2.6406 8.0547-8.6797 8.0547-1.7812 0-3.332-0.23047-6.0391-1.1562l0.33203-2.8711c2.375 1.0898 3.793 1.5195 6.0703 1.5195 3.2695 0 5.2148-2.2109 5.2148-5.7773v-1.6484h-0.0664c-1.3203 1.75-3.4961 2.6055-5.6445 2.6055-4.8164 0-7.1914-3.9258-7.1914-8.2812 0-4.3242 2.4414-8.9453 7.5234-8.9453 2.9688 0 4.6211 1.0898 5.543 2.9023h0.0664v-2.5078h2.8711z" style="fill:#e2e2e2"/>
		<path id="path43" d="m205.11 112.66h3.1055v16.832h-3.1055zm3.3008-3.7617h-3.4961v-3.5h3.4961z" style="fill:#e2e2e2"/>
		<path id="path45" d="m212.23 112.66h3.0039v2.6758h0.0664c0.92187-1.9141 3.168-3.0703 5.5117-3.0703 4.3555 0 6.3047 2.707 6.3047 7.2266v10h-3.1055v-8.7109c0-3.9297-0.85547-5.8438-3.5625-6.0078-3.5312 0-5.1133 2.8398-5.1133 6.9297v7.7891h-3.1055z" style="fill:#e2e2e2"/>
		<path id="path47" d="m241.64 119.46c0-2.5742-1.5195-4.6875-4.1914-4.6875-3.0391 0-4.293 2.5078-4.5234 4.6875zm2.0117 9.3398c-1.1875 0.42968-2.5391 1.0898-5.3125 1.0898-5.9727 0-8.7148-3.6328-8.7148-9.1133 0-4.9805 3.1367-8.5117 7.8906-8.5117 5.6094 0 7.4258 4.0898 7.4258 9.5039h-12.016c0 3.3359 2.6094 5.6133 5.543 5.6133 2.0508 0 4.4258-1.0586 5.1836-1.6836z" style="fill:#e2e2e2"/>
		<path id="path49" d="m258.34 119.46c0-2.5742-1.5195-4.6875-4.1914-4.6875-3.0352 0-4.2891 2.5078-4.5234 4.6875zm2.0156 9.3398c-1.1914 0.42968-2.543 1.0898-5.3164 1.0898-5.9727 0-8.7109-3.6328-8.7109-9.1133 0-4.9805 3.1328-8.5117 7.8867-8.5117 5.6094 0 7.4258 4.0898 7.4258 9.5039h-12.016c0 3.3359 2.6094 5.6133 5.5469 5.6133 2.0469 0 4.4219-1.0586 5.1836-1.6836z" style="fill:#e2e2e2"/>
		<path id="path51" d="m264.14 112.66h2.9024v2.6055h0.0664c0.82422-1.7461 2.6055-3 4.3906-3 0.92187 0 1.3867 0.0977 2.0469 0.23047v2.7695c-0.5625-0.22656-1.1875-0.29297-1.7188-0.29297-2.7695 0-4.5859 2.6406-4.5859 6.8633v7.6562h-3.1016z" style="fill:#e2e2e2"/>
		<path id="path53" d="m275.73 112.66h3.1016v16.832h-3.1016zm3.3008-3.7617h-3.5v-3.5h3.5z" style="fill:#e2e2e2"/>
		<path id="path55" d="m282.86 112.66h3.0039v2.6758h0.0625c0.92578-1.9141 3.168-3.0703 5.5117-3.0703 4.3594 0 6.3047 2.707 6.3047 7.2266v10h-3.1016v-8.7109c0-3.9297-0.85547-5.8438-3.5625-6.0078-3.5312 0-5.1172 2.8398-5.1172 6.9297v7.7891h-3.1016z" style="fill:#e2e2e2"/>
		<path id="path57" d="m313.15 121.27c0-3.4961-1.6172-6.5-4.918-6.5-3.1328 0-4.6836 3.3984-4.6836 6.2695 0 3.168 1.7812 5.9414 4.6836 5.9414 2.9062 0 4.918-2.5742 4.918-5.7109m3.1055 7.4922c0 5.1172-2.6406 8.0547-8.6797 8.0547-1.7852 0-3.3359-0.23047-6.043-1.1562l0.33203-2.8711c2.375 1.0898 3.793 1.5195 6.0703 1.5195 3.2695 0 5.2148-2.2109 5.2148-5.7773v-1.6484h-0.0625c-1.3242 1.75-3.5 2.6055-5.6484 2.6055-4.8164 0-7.1914-3.9258-7.1914-8.2812 0-4.3242 2.4414-8.9453 7.5234-8.9453 2.9727 0 4.6211 1.0898 5.543 2.9023h0.0664v-2.5078h2.875z" style="fill:#e2e2e2"/>
		<path id="path59" d="m4.4648 162.56h2.3086c3.7852 0 5.875-1.8281 5.875-5.7891 0-3.5859-2.4414-5.6992-5.6094-5.6992h-2.5742zm-2.1992-13.422h4.5312c4.5547 0 8.1836 2.8164 8.1836 7.5469 0 5.1484-3.125 7.8086-8.1836 7.8086h-4.5312z" style="fill:#e2e2e2"/>
		<path id="path61" d="m18.168 149.14h8.6055v1.9336h-6.4023v4.4883h5.8281v1.9375h-5.8281v5.0625h6.4023v1.9336h-8.6055z" style="fill:#e2e2e2"/>
		<path id="path63" d="m32.141 156.42h2.1797c1.3633 0 3.0781-0.68359 3.0781-2.707 0-1.9375-2.0234-2.6406-3.3867-2.6406h-1.8711zm-2.1992-7.2812h4.0234c3.1484 0 5.7656 1.0977 5.7656 4.5977 0 3.4102-2.6602 4.6211-5.4336 4.6211h-2.1562v6.1367h-2.1992z" style="fill:#e2e2e2"/>
		<path id="path65" d="m47.211 151.2-3.0586 7.6133h6.1172zm-1.0781-2.0664h2.3125l6.4883 15.355h-2.3984l-1.5625-3.8711h-7.5234l-1.5625 3.8711h-2.3086z" style="fill:#e2e2e2"/>
		<path id="path67" d="m59.004 155.74h1.8711c2.0898 0 3.3203-0.92579 3.3203-2.3984 0-1.3867-1.0547-2.2695-3.082-2.2695h-2.1094zm-2.2031-6.6055h3.7656c3.0352 0 5.9609 0.48828 5.9609 4.1602 0 1.8711-1.3867 3.1914-3.168 3.5v0.043c0.68359 0.26563 1.0117 0.59375 1.4961 1.5391l2.9023 6.1172h-2.5078l-2.3516-5.3242c-0.68359-1.4961-1.4102-1.4961-2.5742-1.4961h-1.3203v6.8203h-2.2031z" style="fill:#e2e2e2"/>
		<path id="path69" d="m72.82 151.07h-4.7734v-1.9375h11.75v1.9375h-4.7774v13.422h-2.1992z" style="fill:#e2e2e2"/>
		<path id="path71" d="m81.797 149.14h3.6289l4.8203 12.762 4.7305-12.762h3.6289v15.355h-2.1992v-13.289h-0.043l-5.082 13.289h-2.1562l-5.082-13.289h-0.0469v13.289h-2.1992z" style="fill:#e2e2e2"/>
		<path id="path73" d="m102.43 149.14h8.6016v1.9336h-6.4024v4.4883h5.832v1.9375h-5.832v5.0625h6.4024v1.9336h-8.6016z" style="fill:#e2e2e2"/>
		<path id="path75" d="m114.31 149.14h2.9922l6.7773 12.363h0.043v-12.363h2.2031v15.355h-2.8164l-6.9531-12.629h-0.0469v12.629h-2.1992z" style="fill:#e2e2e2"/>
		<path id="path77" d="m133.06 151.07h-4.7774v-1.9375h11.75v1.9375h-4.7734v13.422h-2.1992z" style="fill:#e2e2e2"/>
		<path id="path79" d="m154.51 162.82c3.543 0 5.0586-2.9492 5.0586-6.0039 0-3.125-1.6719-6.0312-5.0586-6.0078-3.3867-0.0234-5.0625 2.8828-5.0625 6.0078 0 3.0547 1.5195 6.0039 5.0625 6.0039m0-13.949c4.6641 0 7.3906 3.3867 7.3906 7.9453 0 4.6641-2.7031 7.9414-7.3906 7.9414s-7.3945-3.2774-7.3945-7.9414c0-4.5586 2.7305-7.9453 7.3945-7.9453" style="fill:#e2e2e2"/>
		<path id="path81" d="m164.67 149.14h8.1641v1.9336h-5.9609v4.4883h5.6992v1.9375h-5.6992v6.9961h-2.2031z" style="fill:#e2e2e2"/>
		<path id="path83" d="m181.5 149.14h3.6289l4.8203 12.762 4.7305-12.762h3.6328v15.355h-2.2031v-13.289h-0.043l-5.082 13.289h-2.1562l-5.0859-13.289h-0.043v13.289h-2.1992z" style="fill:#e2e2e2"/>
		<path id="path85" d="m202.14 149.14h8.6016v1.9336h-6.4023v4.4883h5.832v1.9375h-5.832v5.0625h6.4023v1.9336h-8.6016z" style="fill:#e2e2e2"/>
		<path id="path87" d="m224.64 151.66c-0.96875-0.57032-2.0469-0.85547-3.168-0.85547-3.543 0-5.8984 2.5508-5.8984 6.0039 0 3.6094 2.5976 6.0078 5.7891 6.0078 1.0977 0 2.5742-0.28516 3.3438-0.7461l0.12891 2.1328c-1.1641 0.48437-2.5938 0.55078-3.4961 0.55078-4.8633 0-8.0976-3.125-8.0976-8.0078 0-4.7305 3.4336-7.8789 8.1211-7.8789 1.1875 0 2.3516 0.17578 3.4531 0.66015z" style="fill:#e2e2e2"/>
		<path id="path89" d="m227.37 149.14h2.1992v6.4219h7.3516v-6.4219h2.1992v15.355h-2.1992v-6.9961h-7.3516v6.9961h-2.1992z" style="fill:#e2e2e2"/>
		<path id="path91" d="m248.86 151.2-3.0586 7.6133h6.1172zm-1.0781-2.0664h2.3086l6.4922 15.355h-2.3984l-1.5586-3.8711h-7.5274l-1.5625 3.8711h-2.3125z" style="fill:#e2e2e2"/>
		<path id="path93" d="m258.57 149.14h2.9922l6.7773 12.363h0.043v-12.363h2.1992v15.355h-2.8164l-6.9531-12.629h-0.043v12.629h-2.1992z" style="fill:#e2e2e2"/>
		<path id="path95" d="m274.25 149.14h2.2031v15.355h-2.2031z" style="fill:#e2e2e2"/>
		<path id="path97" d="m290.75 151.66c-0.96875-0.57032-2.0469-0.85547-3.168-0.85547-3.5469 0-5.8984 2.5508-5.8984 6.0039 0 3.6094 2.5938 6.0078 5.7852 6.0078 1.1016 0 2.5742-0.28516 3.3438-0.7461l0.13281 2.1328c-1.1641 0.48437-2.5938 0.55078-3.4961 0.55078-4.8633 0-8.0977-3.125-8.0977-8.0078 0-4.7305 3.4297-7.8789 8.1172-7.8789 1.1875 0 2.3555 0.17578 3.457 0.66015z" style="fill:#e2e2e2"/>
		<path id="path99" d="m299.31 151.2-3.0586 7.6133h6.1172zm-1.0781-2.0664h2.3086l6.4922 15.355h-2.3984l-1.5586-3.8711h-7.5273l-1.5625 3.8711h-2.3125z" style="fill:#e2e2e2"/>
		<path id="path101" d="m309.01 149.14h2.1992v13.422h6.4258v1.9336h-8.625z" style="fill:#e2e2e2"/>
		<path id="path103" d="m7.6328 177.2-3.0586 7.6133h6.1172zm-1.0781-2.0664h2.3125l6.4883 15.355h-2.3984l-1.5625-3.8711h-7.5234l-1.5625 3.8711h-2.3086z" style="fill:#e2e2e2"/>
		<path id="path105" d="m17.336 175.14h2.9922l6.7773 12.363h0.043v-12.363h2.1992v15.355h-2.8164l-6.9531-12.629h-0.043v12.629h-2.1992z" style="fill:#e2e2e2"/>
		<path id="path107" d="m35.086 188.56h2.3125c3.7852 0 5.875-1.8281 5.875-5.7891 0-3.5859-2.4414-5.6992-5.6094-5.6992h-2.5781zm-2.1992-13.422h4.5352c4.5547 0 8.1836 2.8164 8.1836 7.5469 0 5.1484-3.125 7.8086-8.1836 7.8086h-4.5352z" style="fill:#e2e2e2"/>
		<path id="path109" d="m60.52 177.2-3.0586 7.6133h6.1172zm-1.0781-2.0664h2.3125l6.4883 15.355h-2.3984l-1.5586-3.8711h-7.5274l-1.5625 3.8711h-2.3086z" style="fill:#e2e2e2"/>
		<path id="path111" d="m70.352 175.14h8.6055v1.9336h-6.4023v4.4883h5.8281v1.9375h-5.8281v5.0625h6.4023v1.9336h-8.6055z" style="fill:#e2e2e2"/>
		<path id="path113" d="m84.324 181.74h1.8711c2.0898 0 3.3203-0.92579 3.3203-2.3984 0-1.3867-1.0547-2.2695-3.082-2.2695h-2.1094zm-2.1992-6.6055h3.7617c3.0352 0 5.9609 0.48828 5.9609 4.1602 0 1.8711-1.3867 3.1914-3.168 3.5v0.043c0.68359 0.26563 1.0117 0.59375 1.4961 1.5391l2.9062 6.1172h-2.5078l-2.3555-5.3242c-0.68359-1.4961-1.4102-1.4961-2.5742-1.4961h-1.3203v6.8203h-2.1992z" style="fill:#e2e2e2"/>
		<path id="path115" d="m102.08 188.82c3.543 0 5.0625-2.9492 5.0625-6.0039 0-3.125-1.6719-6.0312-5.0625-6.0078-3.3867-0.0234-5.0625 2.8828-5.0625 6.0078 0 3.0547 1.5195 6.0039 5.0625 6.0039m0-13.949c4.6641 0 7.3945 3.3867 7.3945 7.9453 0 4.6641-2.707 7.9414-7.3945 7.9414s-7.3945-3.2774-7.3945-7.9414c0-4.5586 2.7305-7.9453 7.3945-7.9453" style="fill:#e2e2e2"/>
		<path id="path117" d="m119.35 177.45c-1.1211-0.44141-1.7383-0.63672-2.8828-0.63672-1.2305 0-2.6836 0.4375-2.6836 2.0469 0 2.9453 6.6016 2.2656 6.6016 7.3242 0 3.2812-2.5312 4.5781-5.6133 4.5781-1.0781 0-2.1328-0.3086-3.1445-0.63672l0.21875-2.0469c0.75 0.3086 2.0703 0.7461 3.1914 0.7461 1.2539 0 3.0156-0.70313 3.0156-2.5078 0-3.4336-6.6016-2.4844-6.6016-7.2617 0-2.7266 2.1562-4.1797 4.9297-4.1797 1.0117 0 2.2226 0.17578 3.2773 0.55078z" style="fill:#e2e2e2"/>
		<path id="path119" d="m125.22 182.42h2.1758c1.3633 0 3.082-0.68359 3.082-2.707 0-1.9375-2.0234-2.6406-3.3867-2.6406h-1.8711zm-2.2031-7.2812h4.0274c3.1484 0 5.7656 1.0977 5.7656 4.5977 0 3.4102-2.6641 4.6211-5.4336 4.6211h-2.1562v6.1367h-2.2031z" style="fill:#e2e2e2"/>
		<path id="path121" d="m140.29 177.2-3.0586 7.6133h6.1172zm-1.0781-2.0664h2.3125l6.4883 15.355h-2.3984l-1.5625-3.8711h-7.5234l-1.5625 3.8711h-2.3086z" style="fill:#e2e2e2"/>
		<path id="path123" d="m160.62 177.66c-0.96875-0.57032-2.0469-0.85547-3.168-0.85547-3.543 0-5.8945 2.5508-5.8945 6.0039 0 3.6094 2.5938 6.0078 5.7852 6.0078 1.0976 0 2.5742-0.28516 3.3438-0.7461l0.13281 2.1328c-1.168 0.48437-2.5977 0.55078-3.5 0.55078-4.8594 0-8.0977-3.125-8.0977-8.0078 0-4.7305 3.4336-7.8789 8.1211-7.8789 1.1875 0 2.3555 0.17578 3.4531 0.66015z" style="fill:#e2e2e2"/>
		<path id="path125" d="m163.34 175.14h8.6055v1.9336h-6.4062v4.4883h5.832v1.9375h-5.832v5.0625h6.4062v1.9336h-8.6055z" style="fill:#e2e2e2"/>
		<path id="path127" d="m181.25 175.14h8.6016v1.9336h-6.4023v4.4883h5.832v1.9375h-5.832v5.0625h6.4023v1.9336h-8.6016z" style="fill:#e2e2e2"/>
		<path id="path129" d="m193.13 175.14h2.9922l6.7774 12.363h0.043v-12.363h2.2031v15.355h-2.8203l-6.9531-12.629h-0.043v12.629h-2.1992z" style="fill:#e2e2e2"/>
		<path id="path131" d="m220.48 177.86c-1.0781-0.70313-2.2461-1.0547-4.2266-1.0547-3.543 0-5.8945 2.5742-5.8945 6.0078 0 3.6055 2.5938 6.0039 5.7852 6.0039 1.5195 0 1.9141-0.15235 2.4648-0.26172v-4.6641h-3.2344v-1.8047h5.4336v7.9844c-0.83594 0.28907-2.2852 0.6836-4.6836 0.6836-4.8672 0-8.0976-3.125-8.0976-8.0078 0-4.7305 3.4297-7.8789 8.1172-7.8789 2.2422 0 3.2344 0.33203 4.5117 0.76953z" style="fill:#e2e2e2"/>
		<path id="path133" d="m224.48 175.14h2.1992v15.355h-2.1992z" style="fill:#e2e2e2"/>
		<path id="path135" d="m230.36 175.14h2.9922l6.7773 12.363h0.043v-12.363h2.2031v15.355h-2.8164l-6.9531-12.629h-0.0469v12.629h-2.1992z" style="fill:#e2e2e2"/>
		<path id="path137" d="m246.15 175.14h8.6016v1.9336h-6.4024v4.4883h5.832v1.9375h-5.832v5.0625h6.4024v1.9336h-8.6016z" style="fill:#e2e2e2"/>
		<path id="path139" d="m258.16 175.14h8.6016v1.9336h-6.4024v4.4883h5.832v1.9375h-5.832v5.0625h6.4024v1.9336h-8.6016z" style="fill:#e2e2e2"/>
		<path id="path141" d="m272.13 181.74h1.8711c2.0898 0 3.3242-0.92579 3.3242-2.3984 0-1.3867-1.0586-2.2695-3.082-2.2695h-2.1133zm-2.1992-6.6055h3.7617c3.0391 0 5.9648 0.48828 5.9648 4.1602 0 1.8711-1.3867 3.1914-3.1719 3.5v0.043c0.6836 0.26563 1.0156 0.59375 1.5 1.5391l2.9024 6.1172h-2.5078l-2.3555-5.3242c-0.67969-1.4961-1.4062-1.4961-2.5742-1.4961h-1.3203v6.8203h-2.1992z" style="fill:#e2e2e2"/>
		<path id="path143" d="m283.29 175.14h2.1992v15.355h-2.1992z" style="fill:#e2e2e2"/>
		<path id="path145" d="m289.16 175.14h2.9922l6.7773 12.363h0.043v-12.363h2.2031v15.355h-2.8164l-6.9531-12.629h-0.0469v12.629h-2.1992z" style="fill:#e2e2e2"/>
		<path id="path147" d="m316.51 177.86c-1.0781-0.70313-2.2422-1.0547-4.2226-1.0547-3.543 0-5.8984 2.5742-5.8984 6.0078 0 3.6055 2.5977 6.0039 5.7852 6.0039 1.5195 0 1.9141-0.15235 2.4688-0.26172v-4.6641h-3.2344v-1.8047h5.4336v7.9844c-0.83594 0.28907-2.2891 0.6836-4.6875 0.6836-4.8633 0-8.0977-3.125-8.0977-8.0078 0-4.7305 3.4336-7.8789 8.1172-7.8789 2.2461 0 3.2344 0.33203 4.5117 0.76953z" style="fill:#e2e2e2"/>
	</g>
</svg>
